<svg width="24" height="24" viewBox="0 0 24 24" fill="none" xmlns="http://www.w3.org/2000/svg">
  <!-- Art Nouveau 스타일 샐러드 (유동적 곡선 & 자연 모티브) -->
  <!-- 그릇 -->
  <path d="M3 12C3 10 5.5 8 12 8C18.5 8 21 10 21 12V15C21 17 19 18 12 18C5 18 3 17 3 15V12Z"
        fill="none" stroke="white" stroke-width="1.5" stroke-linecap="round"/>

  <!-- 야채 곡선들 (자연스러운 곡선) -->
  <!-- 상추 -->
  <path d="M6 11Q7 8 9 10" stroke="white" stroke-width="1.5" fill="none" stroke-linecap="round"/>
  <path d="M15 11Q16 8 18 10" stroke="white" stroke-width="1.5" fill="none" stroke-linecap="round"/>

  <!-- 토마토 (원) -->
  <circle cx="10" cy="12" r="1.5" fill="white"/>
  <circle cx="14" cy="12" r="1.5" fill="white"/>

  <!-- 당근 곡선 -->
  <path d="M8 14Q10 15 12 14" stroke="white" stroke-width="1" fill="none" stroke-linecap="round"/>
  <path d="M12 14Q14 15 16 14" stroke="white" stroke-width="1" fill="none" stroke-linecap="round"/>

  <!-- 드레싱 흐름 (유동적) -->
  <path d="M7 13Q9 12 11 13" stroke="white" stroke-width="0.8" fill="none" opacity="0.6" stroke-linecap="round"/>
  <path d="M13 13Q15 12 17 13" stroke="white" stroke-width="0.8" fill="none" opacity="0.6" stroke-linecap="round"/>
</svg>