<svg width="24" height="24" viewBox="0 0 24 24" fill="none" xmlns="http://www.w3.org/2000/svg">
  <!-- 빵 위 -->
  <path d="M3 7C3 6.44772 3.44772 6 4 6H20C20.5523 6 21 6.44772 21 7C21 7.55228 20.5523 8 20 8H4C3.44772 8 3 7.55228 3 7Z" fill="#D4A574"/>
  <!-- 치즈 -->
  <path d="M3 9C3 8.44772 3.44772 8 4 8H20C20.5523 8 21 8.44772 21 9C21 9.55228 20.5523 10 20 10H4C3.44772 10 3 9.55228 3 9Z" fill="#FFD700"/>
  <!-- 패티 -->
  <path d="M3 11C3 10.4477 3.44772 10 4 10H20C20.5523 10 21 10.4477 21 11C21 11.5523 20.5523 12 20 12H4C3.44772 12 3 11.5523 3 11Z" fill="#8B4513"/>
  <!-- 야채 -->
  <path d="M3 13C3 12.4477 3.44772 12 4 12H20C20.5523 12 21 12.4477 21 13C21 13.5523 20.5523 14 20 14H4C3.44772 14 3 13.5523 3 13Z" fill="#228B22"/>
  <!-- 빵 아래 -->
  <path d="M3 16C3 15.4477 3.44772 15 4 15H20C20.5523 15 21 15.4477 21 16C21 17.1046 20.1046 18 19 18H5C3.89543 18 3 17.1046 3 16Z" fill="#D4A574"/>
</svg>